# xmcd CD database file
#
# Track frame offsets:
#	150
#	20128
#	37939
#	51864
#	65529
#	78552
#	96065
#	113322
#	125650
#	141454
#	156987
#	172253
#	186136
#	199582
#	220955
#	237355
#	250000
#	267140
#	290123
#
# Disc length: 4098 seconds
#
# Revision: 5
# Processed by: cddbd v1.5.2PL0 Copyright (c) Steve Scherf et al.
# Submitted via: CDex 1.51
#
DISCID=1d100013
DTITLE=Various Artist - Jazz Emotion - Saxophone
DYEAR=2008
DGENRE=Jazz
TTITLE0=Barney Wilen - Nature Boy   [1957]
TTITLE1=Sonny Rollins - St Thomas   [1964]
TTITLE2=Charlie Parker - My Little Suede Shoes   [1951]
TTITLE3=Coleman Hawkins - Body And Soul   [1939]
TTITLE4=Benny Carter - Georgia On My Mind   [1952]
TTITLE5=Don Byas - Moonglow   [1953]
TTITLE6=Johnny Hodges - Mood Indigo   [1950]
TTITLE7=Stan Getz - Stella By Starlight   [1953]
TTITLE8=Gerry Mulligan - Makin' Whoopee   [1954]
TTITLE9=Lester Young - These Foolish Things  (Remind Me Of You)   [1952]
TTITLE10=Lee Konitz - I'll Remember April   [1953]
TTITLE11=Ben Webster - Tenderly   [1953]
TTITLE12=Bobby Jaspar - All The Things You Are   [1955]
TTITLE13=John Coltrane - While My Lady Sleeps   [1957]
TTITLE14=Art Pepper - Red Pepper Blues   [1957]
TTITLE15=Guy Lafitte - Jamaïca   [1968]
TTITLE16=Gato Barbieri - Antonico   [1973]
TTITLE17=Wayne Shorter - Beauty And The Beast   [1975]
TTITLE18=Steve Coleman - The Gypsy   [1995]
EXTD=YEAR: 2008
EXTT0=
EXTT1=
EXTT2=
EXTT3=
EXTT4=
EXTT5=
EXTT6=
EXTT7=
EXTT8=
EXTT9=
EXTT10=
EXTT11=
EXTT12=
EXTT13=
EXTT14=
EXTT15=
EXTT16=
EXTT17=
EXTT18=
PLAYORDER=
